Complete name : Little.Fockers.2010.cam.xvid.santas elfes.rg.avi

Format : AVI

Format/Info : Audio Video Interleave

File size : 699 MiB

Duration : 1h 33mn

Overall bit rate : 1 047 Kbps

Writing application : VirtualDubMod 1.5.10.2 (build 2542/release)

Writing library : VirtualDub build 32706/release



Video

ID : 0

Format : MPEG-4 Visual

Format profile : Advanced Simple@L5

Format settings, BVOP : Yes

Format settings, QPel : No

Format settings, GMC : No warppoints

Format settings, Matrix : Default (H.263)

Muxing mode : Packed bitstream

Codec ID : XVID

Codec ID/Hint : XviD

Duration : 1h 33mn

Bit rate : 909 Kbps

Width : 640 pixels

Height : 354 pixels

Display aspect ratio : 16:9

Frame rate : 25.000 fps

Color space : YUV

Chroma subsampling : 4:2:0

Bit depth : 8 bits

Scan type : Progressive

Compression mode : Lossy

Bits/(Pixel*Frame) : 0.160

Stream size : 607 MiB (87%)

Writing library : XviD 1.2.1 (UTC 2008-12-04)



Audio

ID : 1

Format : MPEG Audio

Format version : Version 1

Format profile : Layer 3

Mode : Joint stereo

Mode extension : MS Stereo

Codec ID : 55

Codec ID/Hint : MP3

Duration : 1h 33mn

Bit rate mode : Constant

Bit rate : 128 Kbps

Channel(s) : 2 channels

Sampling rate : 48.0 KHz

Compression mode : Lossy

Stream size : 85.6 MiB (12%)

Alignment : Split accross interleaves

Interleave, duration : 40 ms (1.00 video frame)

Interleave, preload duration : 500 ms



audio:santas elfes.rg



video:SERENiTY



ok it xmas time why of the groups take a break dont fear santas elfes.rg is here



we only come out once a year as santas elfes to plzs you in this great time of the year



ok now big thanks to SERENiTY for the nice video



and big thanks to a guy in our group for the audio you know who you are



with that all said have a happy new year and p.s see you next xmas 